<svg xmlns="http://www.w3.org/2000/svg" width="48" height="48" viewBox="0 0 48 48"><path d="M10.11 32.15c4.115-1.674 8.135-3.678 11.842-6.027l-.51 9.04c-3.905 1.9-7.92 3.798-12.034 5.472l.703-8.485zm12.11 8.28c1.235-4.266 2.15-8.662 2.608-13.025l6.778 5.998c-.93 4.246-1.927 8.572-3.163 12.836l-6.224-5.81zm14-4.37c-2.58-3.614-5.464-7.062-8.605-10.122l8.91-1.6c2.757 3.36 5.532 6.824 8.114 10.438l-8.42 1.284zm5.25-13.7c-4.437-.212-8.927-.084-13.278.482l4.267-7.983c4.343-.08 8.785-.112 13.22.103l-4.21 7.397zM33.972 9.754c-2.917 3.348-5.6 6.953-7.85 10.72l-3.624-8.3c2.63-3.455 5.358-6.96 8.273-10.31l3.2 7.89zm-14.54-1.93c.82 4.365 1.984 8.702 3.545 12.805l-8.755-2.302c-1.087-4.205-2.144-8.52-2.964-12.885l8.173 2.38zM8.906 18.037c3.933 2.062 8.06 3.838 12.244 5.154l-7.23 5.446c-3.974-1.756-8.015-3.598-11.95-5.658l6.936-4.94zm17.782 6.014a2.322 2.322 0 1 1-4.644 0 2.322 2.322 0 0 1 4.644 0z"/><path fill="none" d="M0 0h48v48H0V0z"/></svg>