<svg xmlns="http://www.w3.org/2000/svg" width="48" height="48" viewBox="0 0 48 48"><defs><path id="a" d="M0 0h48v48H0z"/></defs><path d="M46.787 12.637a18.022 18.022 0 0 1-5.136 1.41 8.986 8.986 0 0 0 3.932-4.95 17.997 17.997 0 0 1-5.676 2.172 8.925 8.925 0 0 0-6.526-2.826 8.94 8.94 0 0 0-8.938 8.938c0 .702.078 1.384.233 2.038-7.432-.373-14.017-3.932-18.428-9.338a8.87 8.87 0 0 0-1.21 4.492 8.94 8.94 0 0 0 3.976 7.44 8.93 8.93 0 0 1-4.048-1.118v.11a8.944 8.944 0 0 0 7.17 8.768c-.75.206-1.54.313-2.353.313a8.885 8.885 0 0 1-1.683-.16 8.945 8.945 0 0 0 8.35 6.208 17.94 17.94 0 0 1-11.103 3.828c-.72 0-1.432-.042-2.134-.126a25.32 25.32 0 0 0 13.704 4.018c16.445 0 25.438-13.623 25.438-25.436 0-.388-.01-.772-.028-1.157a18.18 18.18 0 0 0 4.46-4.626"/></svg>