<svg xmlns="http://www.w3.org/2000/svg" width="167.764" height="75.419" viewBox="0 0 167.764 75.419"><path fill="#FFF" d="M13.748 55.8c-.59 0-.906-.362-1.132-.95L2.063 25.5c-.18-.498-.317-.815-.317-1.178s.362-.68.906-.68h1.72c.635 0 .952.41 1.178 1.088 6.52 18.342 7.88 22.327 9.103 26.13 1.313-3.85 2.717-7.653 9.33-26.04.226-.68.588-1.177 1.177-1.177h1.585c.59 0 .86.317.86.725 0 .317-.09.68-.27 1.177L16.51 54.894c-.27.725-.543.906-1.177.906h-1.585zM38.247 55.8h-1.63c-.59 0-.86-.317-.86-.95V24.596c0-.543.226-.95.905-.95h1.676c.634 0 .815.36.815.95V54.85c0 .543-.227.95-.906.95zM49.07 55.71c-.815 0-1.087-.41-1.087-1.043v-.77c0-.59.272-.996.59-1.45C63.244 32.43 65.51 29.443 67.412 26.952H50.518c-.59 0-.997-.27-.997-.905v-1.36c0-.678.453-.95.996-.95H70.9c.678 0 .995.227.995.95v.68c0 .635-.045.997-.543 1.722C56.77 46.97 55.274 49.007 52.648 52.494h19.066c.543 0 .997.226.997.906v1.45c0 .588-.36.86-.996.86H49.07z"/><path fill="#FCAF17" d="M91.368 53.128c3.533 0 5.707-.498 7.744-1.268.59-.227.95-.317 1.27-.317.27 0 .542.18.724.634.18.498.362 1.177.362 1.494 0 .41-.227.68-.997.998-2.807 1.177-6.158 1.63-9.42 1.63-7.924 0-12.182-3.76-12.182-16.077 0-11.82 3.035-17.073 13.542-17.073 2.898 0 5.48.27 7.29.68.816.18 1.088.497 1.088.995 0 .362-.136 1.27-.362 1.857-.09.316-.407.452-.725.452-.36 0-.814-.136-1.448-.272-1.313-.27-3.442-.543-6.43-.543-8.425 0-9.466 5.978-9.466 13.224s.814 13.588 9.012 13.588zM110.207 54.668c-.272.725-.5 1.132-1.178 1.132h-1.586c-.634 0-.95-.317-.95-.68s.135-.68.316-1.177l10.87-29.438c.226-.588.588-.86 1.177-.86h1.585c.634 0 .95.18 1.177.86l10.868 29.438c.182.498.317.77.317 1.177 0 .362-.272.68-.86.68h-1.585c-.68 0-.906-.317-1.268-1.223l-3.306-8.967h-12.228l-3.35 9.058zm14.582-12.183c-3.216-8.74-4.168-11.413-5.12-14.13-.905 2.626-1.9 5.435-5.116 14.13h10.235zM141.952 55.71c-.77 0-.95-.41-.95-.997v-29.98c0-.544.135-.998.86-.998h7.246c1.404 0 3.396.136 4.574.272 4.8.498 7.02 2.99 7.02 7.654 0 3.986-1.404 6.205-4.755 7.292 3.668.86 5.797 3.035 5.797 7.473 0 3.804-1.268 6.93-4.665 8.288-1.722.68-4.485.996-8.017.996h-7.11zm8.197-18.207c2.218 0 3.622-.045 4.482-.453 1.585-.77 2.672-2.446 2.672-4.89 0-3.443-1.585-4.168-3.26-4.802-.997-.362-2.854-.453-4.756-.453h-4.89v10.597h5.75zm-.86 15.037c2.942 0 4.89-.272 5.932-.725 1.72-.725 3.034-2.174 3.034-5.616 0-2.718-1.313-4.122-3.08-4.937-1.177-.543-2.672-.59-4.936-.59h-5.842V52.54h4.89z"/><g><path fill="none" d="M0 0h165v75.42H0z"/></g></svg>